<svg width="11" height="19" viewBox="0 0 11 19" xmlns="http://www.w3.org/2000/svg">
<path d="M9.65023 0.325313C9.43373 0.331764 9.22825 0.422247 9.07731 0.577592L0.74398 8.91093C0.587759 9.06721 0.5 9.27914 0.5 9.50012C0.5 9.7211 0.587759 9.93303 0.74398 10.0893L9.07731 18.4226C9.1541 18.5026 9.24607 18.5665 9.34785 18.6105C9.44962 18.6545 9.55915 18.6777 9.67002 18.6788C9.78089 18.6799 9.89086 18.6589 9.99351 18.617C10.0962 18.5751 10.1894 18.5132 10.2678 18.4348C10.3462 18.3564 10.4082 18.2631 10.4501 18.1605C10.492 18.0578 10.513 17.9478 10.5119 17.837C10.5107 17.7261 10.4875 17.6166 10.4435 17.5148C10.3995 17.413 10.3357 17.321 10.2557 17.2443L2.51156 9.50012L10.2557 1.75598C10.3761 1.63893 10.4584 1.48822 10.4917 1.32362C10.525 1.15903 10.5078 0.988205 10.4423 0.83355C10.3769 0.678896 10.2662 0.547621 10.1249 0.45693C9.98353 0.366239 9.81809 0.320363 9.65023 0.325313Z"/>
</svg>
