<svg width="62" height="62" viewBox="0 0 62 62" fill="none" xmlns="http://www.w3.org/2000/svg">
<path d="M8.53861 44.4222C3.79091 39.6745 1.41706 37.3006 0.548773 34.5551C-0.182924 32.2415 -0.182925 29.7585 0.548772 27.4449C1.41706 24.6994 3.79091 22.3255 8.53861 17.5778L17.5778 8.53861C22.3255 3.79091 24.6994 1.41706 27.4449 0.548773C29.7585 -0.182924 32.2415 -0.182925 34.5551 0.548772C37.3006 1.41706 39.6745 3.79091 44.4222 8.53861L53.4614 17.5778C58.2091 22.3255 60.5829 24.6994 61.4512 27.4449C62.1829 29.7585 62.1829 32.2415 61.4512 34.5551C60.5829 37.3006 58.2091 39.6745 53.4614 44.4222L44.4222 53.4614C39.6745 58.2091 37.3006 60.5829 34.5551 61.4512C32.2415 62.1829 29.7585 62.1829 27.4449 61.4512C24.6994 60.5829 22.3255 58.2091 17.5778 53.4614L8.53861 44.4222Z" fill="black"/>
</svg>
