<svg width="20" height="17" viewBox="0 0 20 17" fill="none" xmlns="http://www.w3.org/2000/svg">
<path d="M18.2179 7.20971L16.7087 2.89771C16.2973 1.72291 15.1841 0.933105 13.9389 0.933105H6.0614C4.8162 0.933105 3.703 1.72291 3.29233 2.89697L1.78313 7.20897C0.977197 7.73917 0.466797 8.65511 0.466797 9.66271V14.8664C0.466797 15.6768 1.12313 16.3331 1.93346 16.3331C2.7438 16.3331 3.40013 15.6768 3.40013 14.8664V13.9417C3.40013 13.9417 7.27286 14.1331 10.0001 14.1331C12.7274 14.1331 16.6001 13.9417 16.6001 13.9417V14.8664C16.6001 15.6768 17.2565 16.3331 18.0668 16.3331C18.8771 16.3331 19.5335 15.6768 19.5335 14.8664V9.66271C19.5335 8.65511 19.0223 7.73917 18.2179 7.20971ZM3.83646 5.78264L4.67686 3.38171C4.88293 2.79357 5.43806 2.39977 6.0614 2.39977H13.9389C14.5622 2.39977 15.1173 2.79357 15.3234 3.38171L16.1638 5.78264C16.2958 6.16031 15.9812 6.54091 15.5859 6.47711C14.1479 6.24464 12.2991 6.06644 10.0001 6.06644C7.70113 6.06644 5.8524 6.24464 4.41433 6.47711C4.01906 6.54091 3.70446 6.16031 3.83646 5.78264ZM3.7668 11.1998C3.1596 11.1998 2.6668 10.707 2.6668 10.0998C2.6668 9.49257 3.1596 8.99977 3.7668 8.99977C4.374 8.99977 4.8668 9.49257 4.8668 10.0998C4.8668 10.707 4.374 11.1998 3.7668 11.1998ZM12.2001 10.4664H7.80013C7.39533 10.4664 7.0668 10.1379 7.0668 9.73311C7.0668 9.32831 7.39533 8.99977 7.80013 8.99977H12.2001C12.6049 8.99977 12.9335 9.32831 12.9335 9.73311C12.9335 10.1379 12.6049 10.4664 12.2001 10.4664ZM16.2335 11.1998C15.6263 11.1998 15.1335 10.707 15.1335 10.0998C15.1335 9.49257 15.6263 8.99977 16.2335 8.99977C16.8407 8.99977 17.3335 9.49257 17.3335 10.0998C17.3335 10.707 16.8407 11.1998 16.2335 11.1998Z" fill="black"/>
</svg>
