<svg width="18" height="17" viewBox="0 0 18 17" xmlns="http://www.w3.org/2000/svg">
<path d="M9 0C4.02923 0 0 3.349 0 7.48C0 9.77024 1.24153 11.8174 3.19246 13.1896C3.24227 14.2341 3.0775 15.6763 1.61043 16.3412C1.60952 16.3417 1.60862 16.3421 1.60772 16.3426C1.54218 16.3671 1.48575 16.4105 1.44591 16.4672C1.40607 16.5239 1.38469 16.5911 1.38462 16.66C1.38462 16.7502 1.42109 16.8367 1.486 16.9004C1.55092 16.9642 1.63896 17 1.73077 17C1.7407 17 1.75063 16.9995 1.76052 16.9987C3.44561 16.9881 4.87611 16.0936 5.86298 15.1486C6.1759 14.8487 6.61214 14.7011 7.04207 14.7807C7.67207 14.8983 8.32708 14.96 9 14.96C13.9708 14.96 18 11.611 18 7.48C18 3.349 13.9708 0 9 0ZM9 2.72C10.5272 2.72 11.7692 3.93992 11.7692 5.44C11.7692 6.6062 11.028 7.27872 10.4319 7.82C9.97363 8.23548 9.69231 8.50816 9.69231 8.84H8.30769C8.30769 7.89548 8.96465 7.29932 9.49219 6.81992C10.0453 6.31808 10.3846 5.98332 10.3846 5.44C10.3846 4.68996 9.76362 4.08 9 4.08C8.23638 4.08 7.61539 4.68996 7.61539 5.44H6.23077C6.23077 3.93992 7.47277 2.72 9 2.72ZM9 10.54C9.57323 10.54 10.0385 10.997 10.0385 11.56C10.0385 12.123 9.57323 12.58 9 12.58C8.42677 12.58 7.96154 12.123 7.96154 11.56C7.96154 10.997 8.42677 10.54 9 10.54Z"/>
</svg>
