<svg width="20" height="20" viewBox="0 0 20 20" xmlns="http://www.w3.org/2000/svg">
<path d="M10.0017 0.466675C9.65248 0.466675 9.30256 0.637003 9.09796 0.978003L8.69978 1.64259C8.52818 1.92859 8.24611 2.12177 7.92491 2.20977C7.92124 2.21051 7.91712 2.2119 7.91345 2.21264C7.58859 2.3021 7.24432 2.27448 6.94952 2.11095L6.27061 1.73569C5.57541 1.34922 4.71975 1.8431 4.70655 2.63803L4.69366 3.42292C4.68779 3.75512 4.54018 4.06339 4.30551 4.29805L4.29835 4.30522C4.06368 4.54062 3.75542 4.68823 3.42322 4.69337L2.63976 4.70626C1.84409 4.72019 1.34951 5.57512 1.73598 6.27032L2.11267 6.95066C2.27474 7.24326 2.30167 7.58619 2.21293 7.90886C2.21147 7.91473 2.2094 7.92018 2.2072 7.92605C2.11994 8.24505 1.92954 8.52649 1.64574 8.69662L0.978297 9.09623C0.296297 9.50543 0.296297 10.4939 0.978297 10.9024L1.64574 11.302C1.92954 11.4721 2.12067 11.7535 2.2072 12.0725C2.20867 12.0784 2.21073 12.0839 2.21293 12.0897C2.30167 12.4124 2.27474 12.7553 2.11267 13.0479L1.73598 13.7297C1.35025 14.4249 1.84482 15.2806 2.63976 15.2938L3.42322 15.3066C3.75542 15.3125 4.06368 15.4601 4.29835 15.6948L4.30551 15.702C4.54091 15.9366 4.68853 16.2449 4.69366 16.5771L4.70655 17.3606C4.71975 18.1555 5.57541 18.6501 6.27061 18.2643L6.95095 17.8862C7.24282 17.7241 7.58649 17.6972 7.90916 17.7859C7.91502 17.7874 7.92048 17.7895 7.92634 17.7917C8.24534 17.8789 8.52678 18.0708 8.69692 18.3546L9.09653 19.0206C9.50573 19.7026 10.4934 19.7026 10.9026 19.0206L11.3023 18.3546C11.4724 18.0708 11.7524 17.8782 12.0714 17.7917C12.0773 17.7902 12.0841 17.7881 12.09 17.7859C12.4119 17.6972 12.7542 17.7241 13.0468 17.8862L13.7271 18.2643C14.4223 18.6501 15.278 18.1555 15.2912 17.3606L15.3041 16.5771C15.3099 16.2449 15.4576 15.9366 15.6922 15.702L15.6994 15.6948C15.9341 15.4594 16.2423 15.3118 16.5745 15.3066L17.3594 15.2938C18.1543 15.2806 18.6489 14.4249 18.2632 13.7297L17.8851 13.0494C17.723 12.7568 17.6961 12.4138 17.7848 12.0912C17.7863 12.0853 17.7883 12.0798 17.7905 12.074C17.8778 11.755 18.0696 11.4735 18.3534 11.3034L19.0194 10.9038C19.7036 10.4946 19.7036 9.50543 19.0223 9.09623L18.3563 8.69662C18.0725 8.52649 17.8799 8.24648 17.7934 7.92748C17.7919 7.92162 17.7899 7.91473 17.7877 7.90886C17.6989 7.58693 17.7259 7.24469 17.8879 6.95209L18.2661 6.27175C18.6518 5.57655 18.1572 4.72089 17.3623 4.70769L16.5774 4.6948C16.2452 4.68893 15.9369 4.54132 15.7023 4.30665L15.6951 4.29949C15.4597 4.06482 15.3121 3.75656 15.3069 3.42436L15.2941 2.63946C15.2801 1.84306 14.4252 1.34922 13.73 1.73569L13.0497 2.11238C12.7578 2.27444 12.4141 2.30137 12.0914 2.21264C12.0856 2.21117 12.0801 2.20911 12.0743 2.20691C11.7553 2.11964 11.4738 1.92925 11.3037 1.64545L10.9041 0.978003C10.6995 0.637003 10.351 0.466675 10.0017 0.466675ZM7.50668 5.91941C8.66022 5.91941 9.41306 6.71158 9.41306 7.92891C9.41306 9.14111 8.66022 9.93842 7.50668 9.93842C6.35975 9.93842 5.6003 9.14111 5.6003 7.92891C5.6003 6.71671 6.35462 5.91941 7.50668 5.91941ZM11.6546 6.1142H13.4464L10.4787 10.212L8.40043 13.8858H6.60147L9.52192 9.80808L11.6546 6.1142ZM7.50668 7.07813C7.17815 7.07813 6.9796 7.39148 6.9796 7.92462C6.9796 8.45262 7.17815 8.76967 7.50668 8.76967C7.83008 8.76967 8.02947 8.45188 8.02947 7.92462C8.02947 7.38635 7.84108 7.07813 7.50668 7.07813ZM12.4997 10.0616C13.6466 10.0616 14.4003 10.8539 14.4003 12.0654C14.4003 13.2834 13.6466 14.0792 12.4997 14.0792C11.3527 14.0792 10.599 13.2827 10.599 12.0654C10.599 10.8539 11.3527 10.0616 12.4997 10.0616ZM12.4997 11.2203C12.1711 11.2203 11.9711 11.5322 11.9711 12.0654C11.9711 12.5934 12.1711 12.9119 12.4997 12.9119C12.8231 12.9119 13.021 12.5934 13.021 12.0654C13.021 11.5264 12.8275 11.2203 12.4997 11.2203Z"/>
</svg>
