<svg width="21" height="21" viewBox="0 0 21 21" xmlns="http://www.w3.org/2000/svg">
<path d="M19.5165 0.59167C19.4842 0.59269 19.452 0.595516 19.42 0.600133H14.3335C14.2186 0.598509 14.1046 0.619726 13.998 0.662551C13.8915 0.705377 13.7945 0.768956 13.7127 0.849595C13.6309 0.930233 13.5659 1.02632 13.5216 1.13228C13.4773 1.23824 13.4545 1.35194 13.4545 1.4668C13.4545 1.58166 13.4773 1.69536 13.5216 1.80132C13.5659 1.90728 13.6309 2.00337 13.7127 2.08401C13.7945 2.16464 13.8915 2.22822 13.998 2.27105C14.1046 2.31387 14.2186 2.33509 14.3335 2.33347H17.4413L8.5207 11.254C8.43752 11.3339 8.37112 11.4296 8.32537 11.5354C8.27962 11.6412 8.25545 11.7552 8.25428 11.8705C8.25311 11.9858 8.27495 12.1001 8.31853 12.2069C8.36212 12.3136 8.42657 12.4106 8.5081 12.4922C8.58964 12.5737 8.68662 12.6381 8.79338 12.6817C8.90013 12.7253 9.01451 12.7472 9.12981 12.746C9.24511 12.7448 9.35902 12.7206 9.46487 12.6749C9.57071 12.6291 9.66636 12.5627 9.74622 12.4796L18.6668 3.55899V6.6668C18.6652 6.78164 18.6864 6.89567 18.7292 7.00224C18.772 7.10881 18.8356 7.20581 18.9163 7.2876C18.9969 7.36938 19.093 7.43433 19.1989 7.47866C19.3049 7.52298 19.4186 7.54581 19.5335 7.54581C19.6483 7.54581 19.762 7.52298 19.868 7.47866C19.9739 7.43433 20.07 7.36938 20.1507 7.2876C20.2313 7.20581 20.2949 7.10881 20.3377 7.00224C20.3805 6.89567 20.4018 6.78164 20.4001 6.6668V1.57683C20.4174 1.45205 20.4072 1.32501 20.3704 1.20455C20.3336 1.08409 20.2709 0.973112 20.1868 0.879338C20.1027 0.785564 19.9992 0.711249 19.8834 0.661568C19.7676 0.611887 19.6424 0.588034 19.5165 0.59167ZM2.20013 4.0668C1.25281 4.0668 0.466797 4.85281 0.466797 5.80013V18.8001C0.466797 19.7475 1.25281 20.5335 2.20013 20.5335H15.2001C16.1474 20.5335 16.9335 19.7475 16.9335 18.8001V10.1335V7.89909L15.2001 9.63243V11.8668V18.8001H2.20013V5.80013H9.13346H10.8668H11.3678L13.1012 4.0668H10.8668H9.13346H2.20013Z"/>
</svg>
