<svg width="24" height="25" viewBox="0 0 24 25" fill="none" xmlns="http://www.w3.org/2000/svg">
<path d="M11.9844 0.000121978C11.7195 0.00426239 11.4671 0.113322 11.2825 0.303366C11.098 0.49341 10.9964 0.748911 11 1.01379V2.01379H3C2.448 2.01379 2 2.46179 2 3.01379V5.01379V7.01379C2 7.56579 2.448 8.01379 3 8.01379H20.2676C20.7406 8.01379 21.1985 7.84518 21.5605 7.53918L23.582 5.82629C23.7112 5.73381 23.8166 5.61187 23.8892 5.47057C23.9619 5.32928 23.9999 5.17269 24 5.01379C23.9999 4.8549 23.9619 4.69831 23.8892 4.55702C23.8166 4.41572 23.7112 4.29378 23.582 4.20129L23.5781 4.19739C23.5736 4.19409 23.569 4.19084 23.5645 4.18762L21.5605 2.4884C21.1985 2.1824 20.7406 2.01379 20.2676 2.01379H13V1.01379C13.0018 0.880004 12.9768 0.747208 12.9264 0.623267C12.876 0.499327 12.8012 0.386763 12.7065 0.292242C12.6118 0.197721 12.4991 0.123164 12.375 0.072987C12.251 0.0228097 12.1182 -0.00196763 11.9844 0.000121978ZM11 10.0138V12.0138H3.73242C3.25942 12.0138 2.80145 12.1824 2.43945 12.4884L0.417969 14.2013C0.288759 14.2938 0.183448 14.4157 0.110762 14.557C0.0380754 14.6983 0.000106172 14.8549 2.49757e-07 15.0138C-0.000114769 15.1766 0.0394981 15.3369 0.1154 15.4809C0.191301 15.6248 0.301197 15.7481 0.435547 15.84L2.43945 17.5392C2.80145 17.8452 3.25942 18.0138 3.73242 18.0138H11V23.0138C10.9981 23.1463 11.0226 23.2779 11.072 23.4008C11.1214 23.5238 11.1948 23.6357 11.2878 23.7301C11.3809 23.8245 11.4918 23.8994 11.614 23.9506C11.7363 24.0017 11.8675 24.028 12 24.028C12.1325 24.028 12.2637 24.0017 12.386 23.9506C12.5082 23.8994 12.6191 23.8245 12.7122 23.7301C12.8052 23.6357 12.8786 23.5238 12.928 23.4008C12.9774 23.2779 13.0019 23.1463 13 23.0138V18.0138H22C22.552 18.0138 23 17.5658 23 17.0138V15.0138V13.0138C23 12.4618 22.552 12.0138 22 12.0138H13V10.0138H11Z" fill="black"/>
</svg>
