<svg width="26" height="24" viewBox="0 0 26 24" xmlns="http://www.w3.org/2000/svg">
<path d="M17.1388 3.71158C16.5997 3.53068 16.0327 3.45058 15.4648 3.45058C14.2138 3.44158 12.9997 3.85559 11.9998 4.61969C11.9188 4.55759 11.8198 4.50269 11.7298 4.44959C11.6398 4.39469 11.4778 4.26059 11.3428 4.18859L11.0008 4.03559C10.8208 3.93659 10.6327 3.86459 10.4338 3.80068C10.4158 3.78358 10.3888 3.76468 10.3528 3.74758H10.2997C9.7678 3.56668 9.2188 3.46768 8.6518 3.45058H8.5528C8.3008 3.45058 8.0497 3.46768 7.79679 3.50458H7.68879C7.41879 3.53968 7.14969 3.60268 6.88869 3.69268C3.53077 4.79159 2.33377 8.43661 3.35077 11.6226C3.92678 13.2507 4.85468 14.7276 6.06069 15.9417C7.81479 17.6338 9.7327 19.1278 11.7928 20.4058L12.0268 20.5507L12.2518 20.4148C14.3047 19.1278 16.2118 17.6337 17.9497 15.9507C19.1638 14.7366 20.0909 13.2507 20.6579 11.6226C21.6578 8.43661 20.4608 4.79159 17.1388 3.71158V3.71158Z"/>
</svg>
