<svg width="22" height="27" viewBox="0 0 22 27" fill="none" xmlns="http://www.w3.org/2000/svg">
    <path fill-rule="evenodd" clip-rule="evenodd" d="M11 0C4.925 0 0 4.925 0 11C0 17.1688 5.2009 20.5954 7.28812 21.9706C7.64851 22.208 7.91607 22.3843 8.048 22.503C8.963 23.326 9.719 25.171 10.024 26.217C10.172 26.725 10.588 26.982 11 26.993C11.413 26.981 11.828 26.724 11.976 26.217C12.281 25.171 13.037 23.327 13.952 22.503C14.0839 22.3843 14.3515 22.208 14.7119 21.9706C16.7991 20.5954 22 17.1688 22 11C22 4.925 17.075 0 11 0ZM13.5469 8.04545C13.6189 8.02218 13.6927 8 13.7727 8C14.1742 8 14.5 8.32582 14.5 8.72727C14.5 8.80727 14.4785 8.88112 14.4545 8.95312L12.2727 15.4972C12.1775 15.7873 11.9131 16 11.5909 16C11.2418 16 10.9647 15.7491 10.8935 15.4219L10.1364 12.3636L7.07812 11.6065C6.75012 11.5353 6.5 11.2582 6.5 10.9091C6.5 10.5869 6.71266 10.3225 7.00284 10.2273L13.5469 8.04545Z" fill="black"/>
</svg>
