<svg width="22" height="27" viewBox="0 0 22 27" fill="none" xmlns="http://www.w3.org/2000/svg">
<path d="M11 0C4.925 0 0 4.925 0 11C0 18.234 7.15283 21.6979 8.04883 22.5039C8.96383 23.3269 9.71844 25.1708 10.0234 26.2168C10.1714 26.7248 10.588 26.9812 11 26.9922C11.413 26.9802 11.8286 26.7238 11.9766 26.2168C12.2816 25.1708 13.0362 23.3279 13.9512 22.5039C14.8472 21.6979 22 18.234 22 11C22 4.925 17.075 0 11 0ZM11.002 6C11.1075 6 11.2118 6.03311 11.3008 6.09961L15.3008 9.09961C15.5208 9.26561 15.5654 9.57978 15.4004 9.80078C15.3024 9.93178 15.151 10 15 10V15H12V12H10V15H7V9.99023C6.848 9.99023 6.69761 9.93178 6.59961 9.80078C6.43461 9.57978 6.48017 9.26561 6.70117 9.09961L10.7012 6.09961C10.7902 6.03311 10.8965 6 11.002 6Z" fill="black"/>
</svg>
