<svg xmlns="http://www.w3.org/2000/svg" fill="none" viewBox="4.55 0.27 28.55 34.13">
<g filter="url(#filter0_d_308_3482)">
<path d="M6.55371 14.5449C6.55371 7.76472 12.0504 2.26807 18.8305 2.26807C25.6106 2.26807 31.1073 7.76472 31.1073 14.5449C31.1073 22.6185 23.1251 26.4835 22.1251 27.383C21.1039 28.3027 20.2602 30.3607 19.9198 31.5281C19.7546 32.094 19.2914 32.3808 18.8305 32.3942C18.3707 32.3819 17.9064 32.0951 17.7412 31.5281C17.4008 30.3607 16.5571 28.3015 15.5359 27.383C14.5359 26.4835 6.55371 22.6185 6.55371 14.5449Z" fill="#E94485" style="--darkreader-inline-fill:#742041;"/>
<path d="M14.8671 28.1265L14.8671 28.1265C15.2336 28.4561 15.632 29.062 15.9964 29.8033C16.3502 30.5233 16.6259 31.2756 16.7811 31.8078C17.0764 32.8212 17.9405 33.3708 18.8038 33.3938L18.8317 33.3946L18.8595 33.3938C19.722 33.3687 20.5843 32.8203 20.8797 31.8083L20.8798 31.808C21.035 31.2759 21.3107 30.5238 21.6646 29.8038C22.0288 29.0629 22.4272 28.457 22.7939 28.1265C22.8506 28.0755 23.0103 27.9628 23.3496 27.7385C23.4037 27.7027 23.4608 27.6651 23.5208 27.6256C23.8016 27.4406 24.1438 27.2151 24.5194 26.9553C25.4341 26.3225 26.5764 25.4661 27.6928 24.3668C29.9246 22.1694 32.1073 18.9438 32.1073 14.5449C32.1073 7.21243 26.1629 1.26807 18.8305 1.26807C11.4981 1.26807 5.55371 7.21243 5.55371 14.5449C5.55371 18.9438 7.73641 22.1694 9.96818 24.3668C11.0846 25.4661 12.2269 26.3225 13.1416 26.9553C13.5172 27.2152 13.8594 27.4406 14.1403 27.6257C14.2002 27.6651 14.2573 27.7027 14.3114 27.7385C14.6507 27.9628 14.8104 28.0755 14.8671 28.1265Z" stroke="white" stroke-width="2" style="--darkreader-inline-stroke:#e7e6e4;"/>
</g>
<circle cx="18.8306" cy="14.545" r="3.34821" fill="white" style="--darkreader-inline-fill:#e7e6e4;"/>
<defs>
<filter id="filter0_d_308_3482" x="0.553711" y="0.268066" width="36.5537" height="42.127" filterUnits="userSpaceOnUse" color-interpolation-filters="sRGB">
<feFlood flood-opacity="0" result="BackgroundImageFix"/>
<feColorMatrix in="SourceAlpha" type="matrix" values="0 0 0 0 0 0 0 0 0 0 0 0 0 0 0 0 0 0 127 0" result="hardAlpha"/>
<feOffset dy="4"/>
<feGaussianBlur stdDeviation="2"/>
<feColorMatrix type="matrix" values="0 0 0 0 0 0 0 0 0 0 0 0 0 0 0 0 0 0 0.05 0"/>
<feBlend mode="normal" in2="BackgroundImageFix" result="effect1_dropShadow_308_3482"/>
<feBlend mode="normal" in="SourceGraphic" in2="effect1_dropShadow_308_3482" result="shape"/>
</filter>
</defs>
</svg>