<svg width="25" height="25" viewBox="0 0 25 25" fill="none" xmlns="http://www.w3.org/2000/svg">
    <path d="M1.73314 0C1.21794 0 0.799805 0.418133 0.799805 0.933333V20.5333C0.799805 22.5951 2.4714 24.2667 4.53314 24.2667H18.5331H19.4665H20.3998C22.4615 24.2667 24.1331 22.5951 24.1331 20.5333V7.46666C24.1331 6.95147 23.715 6.53333 23.1998 6.53333H21.3331V20.5333C21.3331 21.0495 20.915 21.4667 20.3998 21.4667C19.8846 21.4667 19.4665 21.0495 19.4665 20.5333V0.933333C19.4665 0.418133 19.0483 0 18.5331 0H1.73314ZM3.59981 3.73333H16.6665V6.53333H3.59981V3.73333ZM3.59981 10.2667H9.19981V12.1333H3.59981V10.2667ZM11.0665 10.2667H16.6665V12.1333H11.0665V10.2667ZM3.59981 14H9.19981V15.8667H3.59981V14ZM11.0665 14H16.6665V15.8667H11.0665V14ZM3.59981 17.7333H9.19981V19.6H3.59981V17.7333ZM11.0665 17.7333H16.6665V19.6H11.0665V17.7333Z" fill="black"/>
</svg>
