<svg width="22" height="22" viewBox="0 0 22 22"  xmlns="http://www.w3.org/2000/svg">
<path d="M20.5329 0.600098C20.4498 0.600668 20.3671 0.61321 20.2875 0.637337C20.2641 0.643697 20.2409 0.651038 20.2181 0.659342L1.16328 6.71924V6.72262C0.997955 6.78432 0.855399 6.89501 0.754673 7.03989C0.653946 7.18478 0.599847 7.35697 0.599609 7.53343C0.599925 7.68225 0.638558 7.82848 0.711786 7.95804C0.785015 8.0876 0.890371 8.19612 1.01771 8.27314L6.80846 12.8672L18.2562 3.74346L9.13255 15.1912L13.7232 20.9786C13.8001 21.1071 13.909 21.2134 14.0392 21.2873C14.1694 21.3611 14.3166 21.4 14.4663 21.4001C14.6427 21.3999 14.8149 21.3458 14.9598 21.245C15.1047 21.1443 15.2154 21.0018 15.2771 20.8364H15.2805L21.3454 1.76468C21.3516 1.74737 21.3573 1.72987 21.3624 1.71221C21.3865 1.6326 21.399 1.54994 21.3996 1.46676C21.3996 1.23691 21.3083 1.01647 21.1458 0.853938C20.9832 0.691407 20.7628 0.600098 20.5329 0.600098V0.600098Z" />
</svg>
