<svg width="28" height="27" viewBox="0 0 28 27" fill="none" xmlns="http://www.w3.org/2000/svg">
<path d="M1.04805 0.122175C0.911122 0.120215 0.775173 0.145821 0.648106 0.197504C0.521039 0.249188 0.405387 0.325918 0.307872 0.423237C0.210356 0.520555 0.132922 0.636521 0.0800698 0.764394C0.0272172 0.892267 0 1.0295 0 1.16811C0 1.30672 0.0272172 1.44395 0.0800698 1.57183C0.132922 1.6997 0.210356 1.81566 0.307872 1.91298C0.405387 2.0103 0.521039 2.08703 0.648106 2.13872C0.775173 2.1904 0.911122 2.21601 1.04805 2.21404H2.98959C3.22302 2.21404 3.4178 2.36201 3.48405 2.58993L7.88783 17.7437C8.27433 19.0739 9.48977 19.9949 10.8607 19.9949H22.2031C23.5965 19.9949 24.8268 19.0418 25.1941 17.6824L27.8784 7.7195C27.9203 7.5643 27.9262 7.40141 27.8958 7.2435C27.8654 7.08558 27.7993 6.93691 27.7029 6.80903C27.6064 6.68115 27.4821 6.57752 27.3396 6.50619C27.1972 6.43487 27.0403 6.39777 26.8814 6.39779H6.74551L5.46797 1.99955C5.4673 1.99955 5.46663 1.99955 5.46595 1.99955C5.14367 0.890763 4.13049 0.122175 2.98959 0.122175H1.04805ZM11.3814 22.0868C10.8333 22.0868 10.3076 22.3072 9.92003 22.6995C9.53246 23.0918 9.31472 23.6239 9.31472 24.1787C9.31472 24.7335 9.53246 25.2656 9.92003 25.6579C10.3076 26.0502 10.8333 26.2705 11.3814 26.2705C11.9295 26.2705 12.4552 26.0502 12.8427 25.6579C13.2303 25.2656 13.4481 24.7335 13.4481 24.1787C13.4481 23.6239 13.2303 23.0918 12.8427 22.6995C12.4552 22.3072 11.9295 22.0868 11.3814 22.0868ZM21.7147 22.0868C21.1666 22.0868 20.6409 22.3072 20.2534 22.6995C19.8658 23.0918 19.6481 23.6239 19.6481 24.1787C19.6481 24.7335 19.8658 25.2656 20.2534 25.6579C20.6409 26.0502 21.1666 26.2705 21.7147 26.2705C22.2628 26.2705 22.7885 26.0502 23.1761 25.6579C23.5636 25.2656 23.7814 24.7335 23.7814 24.1787C23.7814 23.6239 23.5636 23.0918 23.1761 22.6995C22.7885 22.3072 22.2628 22.0868 21.7147 22.0868Z" fill="black"/>
</svg>
