<svg width="26" height="24" viewBox="0 0 26 24" fill="none" xmlns="http://www.w3.org/2000/svg">
<path d="M13 0C12.7443 0 12.4885 0.0974686 12.293 0.292969L5.58594 7H8.41406L13 2.41406L17.5859 7H20.4141L13.707 0.292969C13.5115 0.0974686 13.2557 0 13 0ZM1 9C0.448 9 0 9.448 0 10V12C0 12.552 0.448 13 1 13H1.16602L2.7207 22.3281C2.8817 23.2921 3.71636 24 4.69336 24H21.3047C22.2827 24 23.1163 23.2921 23.2773 22.3281L24.834 13H25C25.552 13 26 12.552 26 12V10C26 9.448 25.552 9 25 9H1ZM9 13C9.553 13 10 13.447 10 14V20C10 20.553 9.553 21 9 21C8.447 21 8 20.553 8 20V14C8 13.447 8.447 13 9 13ZM13 13C13.553 13 14 13.447 14 14V20C14 20.553 13.553 21 13 21C12.447 21 12 20.553 12 20V14C12 13.447 12.447 13 13 13ZM17 13C17.553 13 18 13.447 18 14V20C18 20.553 17.553 21 17 21C16.447 21 16 20.553 16 20V14C16 13.447 16.447 13 17 13Z" fill="black"/>
</svg>
