<svg width="44" height="44" viewBox="0 0 44 44" fill="none" xmlns="http://www.w3.org/2000/svg">
<path d="M4.58301 17.4165H39.4163V34.8332H4.58301V17.4165Z" fill="#DCDEF9"/>
<path d="M4.58301 34.8335H39.4163V38.5002H4.58301V34.8335Z" fill="#A8ADF0"/>
<path d="M24.75 22H35.75V38.5H24.75V22Z" fill="#E94485"/>
<path d="M9.16699 22.9165H20.167V31.1665H9.16699V22.9165Z" fill="#515BE2"/>
<path d="M33.4583 30.7085C33.1833 30.7085 33 30.8918 33 31.1668V33.0002C33 33.2752 33.1833 33.4585 33.4583 33.4585C33.7333 33.4585 33.9167 33.2752 33.9167 33.0002V31.1668C33.9167 30.8918 33.7333 30.7085 33.4583 30.7085Z" fill="#FC818C"/>
<path d="M22 14.6665C21.2707 14.6665 20.5712 14.9562 20.0555 15.472C19.5397 15.9877 19.25 16.6872 19.25 17.4165C19.25 18.1458 19.5397 18.8453 20.0555 19.361C20.5712 19.8768 21.2707 20.1665 22 20.1665C22.7293 20.1665 23.4288 19.8768 23.9445 19.361C24.4603 18.8453 24.75 18.1458 24.75 17.4165C24.75 16.6872 24.4603 15.9877 23.9445 15.472C23.4288 14.9562 22.7293 14.6665 22 14.6665ZM33 14.6665C32.2707 14.6665 31.5712 14.9562 31.0555 15.472C30.5397 15.9877 30.25 16.6872 30.25 17.4165C30.25 18.1458 30.5397 18.8453 31.0555 19.361C31.5712 19.8768 32.2707 20.1665 33 20.1665C33.7293 20.1665 34.4288 19.8768 34.9445 19.361C35.4603 18.8453 35.75 18.1458 35.75 17.4165C35.75 16.6872 35.4603 15.9877 34.9445 15.472C34.4288 14.9562 33.7293 14.6665 33 14.6665ZM11 14.6665C10.2707 14.6665 9.57118 14.9562 9.05546 15.472C8.53973 15.9877 8.25 16.6872 8.25 17.4165C8.25 18.1458 8.53973 18.8453 9.05546 19.361C9.57118 19.8768 10.2707 20.1665 11 20.1665C11.7293 20.1665 12.4288 19.8768 12.9445 19.361C13.4603 18.8453 13.75 18.1458 13.75 17.4165C13.75 16.6872 13.4603 15.9877 12.9445 15.472C12.4288 14.9562 11.7293 14.6665 11 14.6665Z" fill="#E94485"/>
<path d="M36.6667 5.5H7.33333C6.325 5.5 5.5 6.325 5.5 7.33333V10.0833H38.5V7.33333C38.5 6.325 37.675 5.5 36.6667 5.5ZM19.25 10.0833H24.75V17.4167H19.25V10.0833ZM33.9167 10.0833H29.3333L30.25 17.4167H35.75L33.9167 10.0833ZM10.0833 10.0833H14.6667L13.75 17.4167H8.25L10.0833 10.0833Z" fill="#EE73A3"/>
<path d="M27.5 14.6665C26.7707 14.6665 26.0712 14.9562 25.5555 15.472C25.0397 15.9877 24.75 16.6872 24.75 17.4165C24.75 18.1458 25.0397 18.8453 25.5555 19.361C26.0712 19.8768 26.7707 20.1665 27.5 20.1665C28.2293 20.1665 28.9288 19.8768 29.4445 19.361C29.9603 18.8453 30.25 18.1458 30.25 17.4165C30.25 16.6872 29.9603 15.9877 29.4445 15.472C28.9288 14.9562 28.2293 14.6665 27.5 14.6665ZM41.25 17.4165C41.25 18.9748 40.0583 20.1665 38.5 20.1665C36.9417 20.1665 35.75 18.9748 35.75 17.4165C35.75 15.8582 36.9417 14.6665 38.5 14.6665L41.25 17.4165ZM16.5 14.6665C15.7707 14.6665 15.0712 14.9562 14.5555 15.472C14.0397 15.9877 13.75 16.6872 13.75 17.4165C13.75 18.1458 14.0397 18.8453 14.5555 19.361C15.0712 19.8768 15.7707 20.1665 16.5 20.1665C17.2293 20.1665 17.9288 19.8768 18.4445 19.361C18.9603 18.8453 19.25 18.1458 19.25 17.4165C19.25 16.6872 18.9603 15.9877 18.4445 15.472C17.9288 14.9562 17.2293 14.6665 16.5 14.6665ZM2.75 17.4165C2.75 18.9748 3.94167 20.1665 5.5 20.1665C7.05833 20.1665 8.25 18.9748 8.25 17.4165C8.25 15.8582 7.05833 14.6665 5.5 14.6665L2.75 17.4165Z" fill="#FC818C"/>
<path d="M29.3333 10.0835H24.75V17.4168H30.25L29.3333 10.0835ZM38.5 10.0835H33.9167L35.75 17.4168H41.25L38.5 10.0835ZM14.6667 10.0835H19.25V17.4168H13.75L14.6667 10.0835ZM5.5 10.0835H10.0833L8.25 17.4168H2.75L5.5 10.0835Z" fill="#FDC0C5"/>
</svg>
