<svg width="226" height="169" viewBox="0 0 226 169" fill="none" xmlns="http://www.w3.org/2000/svg">
<path d="M77.3901 0C67.0361 0 57.1059 4.11315 49.7845 11.4346C42.463 18.756 38.3501 28.6861 38.3501 39.04V65.04H49.3501V39.04C49.3501 31.6033 52.3042 24.4712 57.5627 19.2128C57.7191 19.0563 57.8772 18.902 58.0368 18.7497C54.3477 24.8142 52.3501 31.8242 52.3501 39.04V65.04H63.3501V39.04C63.3501 31.6033 66.3042 24.4712 71.5627 19.2128C75.137 15.6384 79.5771 13.1287 84.3901 11.8877C89.203 13.1287 93.643 15.6384 97.2174 19.2128C102.476 24.4712 105.43 31.6033 105.43 39.04V65.04H116.43V39.04C116.43 31.8242 114.432 24.8142 110.743 18.7496C110.903 18.902 111.061 19.0563 111.217 19.2128C116.476 24.4712 119.43 31.6033 119.43 39.04V65.04H130.43V39.04C130.43 28.6861 126.317 18.756 118.996 11.4346C111.674 4.11318 101.744 0 91.3901 0C89.026 0 86.684 0.214432 84.3901 0.632525C82.0962 0.214432 79.7542 0 77.3901 0Z" fill="#101739"/>
<path d="M38.32 46.1499L51.03 168.57H170.18L155.65 46.1499H38.32Z" fill="#C4BCBF"/>
<path d="M38.32 46.1499L51.03 168.57H170.18L155.65 46.1499H38.32Z" fill="url(#paint0_linear_14_220)"/>
<path d="M51.03 168.57L26.57 148.54L0 168.57H51.03Z" fill="#C4BCBF"/>
<path d="M51.03 168.57L26.57 148.54L0 168.57H51.03Z" fill="url(#paint1_linear_14_220)"/>
<path d="M26.57 148.54L28.88 46.1499H38.32L51.03 168.57L26.57 148.54Z" fill="#9DE52B"/>
<path d="M26.57 148.54L28.88 46.1499H38.32L51.03 168.57L26.57 148.54Z" fill="url(#paint2_linear_14_220)"/>
<path d="M26.57 148.54L28.88 46.1499H19.8L0 168.57L26.57 148.54Z" fill="#CE4E81"/>
<path d="M26.57 148.54L28.88 46.1499H19.8L0 168.57L26.57 148.54Z" fill="url(#paint3_linear_14_220)"/>
<path fill-rule="evenodd" clip-rule="evenodd" d="M73.35 100.48C71.92 85.77 83.0598 73.87 97.9298 73.87C112.8 73.87 126.29 85.77 127.72 100.48C128.388 107.588 126.556 114.707 122.54 120.61C118.255 127.061 112.785 132.639 106.42 137.05C104.96 138.05 103.57 138.14 101.75 137.05C94.4812 132.63 87.9628 127.081 82.4399 120.61C77.4059 114.998 74.2309 107.967 73.35 100.48ZM91.64 101.31C91.9308 103.717 93.0858 105.936 94.8903 107.555C96.6948 109.173 99.0258 110.081 101.45 110.11C102.587 110.149 103.718 109.942 104.768 109.504C105.818 109.066 106.761 108.408 107.534 107.573C108.306 106.738 108.889 105.746 109.244 104.665C109.599 103.585 109.717 102.44 109.59 101.31C109.304 98.8728 108.148 96.6207 106.335 94.9673C104.522 93.3139 102.173 92.3704 99.7199 92.31C98.5729 92.2895 97.435 92.516 96.3832 92.9739C95.3314 93.4319 94.3905 94.1107 93.6242 94.9644C92.8578 95.818 92.2839 96.8264 91.9416 97.9213C91.5992 99.0161 91.4965 100.172 91.64 101.31Z" fill="white"/>
<path d="M146.948 86.6179C130.891 84.9302 114.944 91.1828 114.944 91.1828L115.768 83.3408L111.12 82.8523C109.967 82.731 108.908 82.1563 108.178 81.2547C107.448 80.353 107.106 79.1982 107.227 78.0444L109.654 54.9533C109.775 53.7994 110.35 52.741 111.252 52.0109C112.153 51.2807 113.308 50.9387 114.462 51.0599L219.331 62.0821C220.484 62.2033 221.543 62.778 222.273 63.6797C223.003 64.5813 223.345 65.7361 223.224 66.89L220.797 89.981C220.676 91.1349 220.101 92.1933 219.199 92.9235C218.298 93.6536 217.143 93.9957 215.989 93.8744L146.948 86.6179Z" fill="white"/>
<path d="M133.339 60.2029L131.476 77.9281C131.468 78.0123 131.443 78.0939 131.403 78.1684C131.363 78.2429 131.308 78.3087 131.243 78.3621C131.177 78.4155 131.102 78.4555 131.021 78.4796C130.94 78.5037 130.855 78.5116 130.771 78.5028L127.417 78.1503C127.333 78.1414 127.251 78.1161 127.177 78.0756C127.103 78.0352 127.037 77.9804 126.984 77.9145C126.931 77.8487 126.892 77.773 126.868 77.6918C126.844 77.6106 126.837 77.5255 126.846 77.4415L127.601 70.2593L120.415 69.504L119.66 76.6862C119.652 76.7704 119.627 76.8521 119.587 76.9266C119.547 77.001 119.493 77.0669 119.427 77.1203C119.362 77.1737 119.286 77.2136 119.205 77.2377C119.124 77.2619 119.039 77.2697 118.955 77.2609L115.605 76.9088C115.521 76.9 115.439 76.8746 115.365 76.8341C115.291 76.7937 115.225 76.7389 115.172 76.6731C115.119 76.6072 115.08 76.5315 115.056 76.4503C115.032 76.3691 115.025 76.2841 115.034 76.2L116.897 58.4748C116.915 58.3055 116.999 58.1503 117.132 58.0432C117.264 57.9361 117.433 57.886 117.602 57.9037L120.956 58.2562C121.125 58.274 121.281 58.3583 121.388 58.4905C121.495 58.6228 121.545 58.7921 121.527 58.9614L120.812 65.7665L128.012 66.5233L128.727 59.7182C128.745 59.5489 128.83 59.3937 128.962 59.2866C129.094 59.1795 129.263 59.1293 129.433 59.1471L132.786 59.4996C132.952 59.5218 133.102 59.6077 133.205 59.739C133.309 59.8703 133.357 60.0367 133.339 60.2029Z" fill="#101739"/>
<path d="M140.974 64.1101L140.571 67.9531L146.132 68.5377C146.301 68.5555 146.457 68.6398 146.564 68.772C146.671 68.9043 146.721 69.0736 146.703 69.2429L146.462 71.5378C146.444 71.7071 146.36 71.8623 146.228 71.9694C146.095 72.0765 145.926 72.1266 145.757 72.1089L140.195 71.5243L139.757 75.6937L146.131 76.3636C146.3 76.3814 146.455 76.4657 146.562 76.5979C146.669 76.7301 146.719 76.8995 146.702 77.0687L146.446 79.4978C146.438 79.582 146.413 79.6637 146.373 79.7382C146.333 79.8126 146.279 79.8785 146.213 79.9319C146.148 79.9853 146.072 80.0252 145.991 80.0493C145.91 80.0735 145.825 80.0813 145.741 80.0725L135.375 78.983C135.291 78.9742 135.21 78.9488 135.136 78.9084C135.061 78.8679 134.996 78.8132 134.943 78.7473C134.89 78.6814 134.85 78.6058 134.827 78.5246C134.803 78.4434 134.795 78.3583 134.805 78.2743L136.667 60.5526C136.685 60.3834 136.769 60.2282 136.902 60.1211C137.034 60.014 137.203 59.9638 137.373 59.9816L147.738 61.0711C147.907 61.0889 148.062 61.1731 148.169 61.3054C148.277 61.4376 148.327 61.607 148.309 61.7762L148.053 64.209C148.035 64.3782 147.951 64.5334 147.819 64.6405C147.687 64.7476 147.517 64.7978 147.348 64.78L140.974 64.1101Z" fill="#101739"/>
<path d="M164.394 73.8367C165.04 74.9144 165.258 76.1953 165.005 77.426C164.751 78.6566 164.045 79.7471 163.025 80.4815C161.818 81.2931 160.222 81.5957 158.238 81.3896L150.022 80.5261C149.938 80.5173 149.857 80.4919 149.782 80.4514C149.708 80.411 149.643 80.3562 149.589 80.2904C149.536 80.2245 149.497 80.1488 149.473 80.0676C149.45 79.9864 149.442 79.9014 149.452 79.8173L151.315 62.0921C151.332 61.9228 151.417 61.7676 151.549 61.6605C151.681 61.5534 151.851 61.5033 152.02 61.521L159.934 62.3529C161.868 62.5561 163.333 63.1573 164.33 64.1565C164.821 64.6429 165.191 65.2376 165.409 65.8928C165.628 66.548 165.69 67.2454 165.591 67.9289C165.522 68.936 165.107 69.8882 164.417 70.6244C163.739 71.3093 162.863 71.7636 161.912 71.9227C162.945 72.2372 163.828 72.9178 164.394 73.8367ZM155.204 69.6267L158.235 69.9453C158.853 70.0518 159.49 69.9399 160.035 69.6286C160.261 69.4673 160.448 69.2562 160.58 69.0115C160.713 68.7668 160.788 68.4951 160.799 68.2171C160.846 67.9412 160.83 67.6582 160.751 67.3896C160.673 67.121 160.534 66.8737 160.346 66.6666C159.883 66.2396 159.282 65.9919 158.653 65.9681L155.622 65.6495L155.204 69.6267ZM159.672 77.2296C159.908 77.0629 160.103 76.8444 160.241 76.5909C160.38 76.3373 160.458 76.0554 160.471 75.7667C160.517 75.4735 160.496 75.1736 160.41 74.8897C160.323 74.6057 160.174 74.345 159.972 74.1271C159.499 73.6705 158.876 73.4006 158.219 73.3674L154.862 73.0145L154.421 77.2092L157.833 77.5678C158.467 77.6728 159.117 77.5532 159.672 77.2296Z" fill="#101739"/>
<path d="M182.236 75.712C182.882 76.7896 183.099 78.0706 182.846 79.3012C182.592 80.5319 181.886 81.6224 180.866 82.3568C179.659 83.1683 178.062 83.4709 176.075 83.2645L167.863 82.4014C167.693 82.3835 167.537 82.2987 167.429 82.1657C167.322 82.0327 167.271 81.8624 167.289 81.6922L169.152 63.967C169.161 63.8829 169.186 63.8013 169.227 63.7271C169.267 63.6528 169.322 63.5873 169.388 63.5342C169.454 63.4812 169.529 63.4417 169.611 63.4181C169.692 63.3944 169.777 63.387 169.861 63.3963L177.786 64.2293C179.719 64.4324 181.181 65.0332 182.182 66.033C182.673 66.5194 183.042 67.1142 183.26 67.7694C183.478 68.4245 183.54 69.1217 183.439 69.805C183.372 70.8117 182.958 71.764 182.269 72.5008C181.591 73.1857 180.715 73.64 179.764 73.7991C180.792 74.1174 181.67 74.7969 182.236 75.712ZM173.041 71.5016L176.076 71.8206C176.693 71.927 177.328 71.8149 177.872 71.5035C178.099 71.3422 178.286 71.1311 178.418 70.8864C178.551 70.6417 178.625 70.37 178.636 70.092C178.684 69.8161 178.667 69.5331 178.589 69.2645C178.51 68.9959 178.372 68.7486 178.184 68.5415C177.722 68.1146 177.122 67.867 176.494 67.8433L173.459 67.5244L173.041 71.5016ZM177.513 79.1049C177.749 78.938 177.943 78.7193 178.081 78.4656C178.219 78.212 178.297 77.9301 178.308 77.6416C178.355 77.3484 178.334 77.0485 178.247 76.7646C178.161 76.4806 178.011 76.2199 177.81 76.002C177.337 75.5454 176.714 75.2755 176.057 75.2422L172.7 74.8894L172.259 79.0841L175.671 79.4427C176.305 79.5478 176.957 79.4283 177.513 79.1049Z" fill="#101739"/>
<path d="M191.3 69.3995L190.897 73.2426L196.458 73.8271C196.627 73.8449 196.783 73.9292 196.89 74.0614C196.997 74.1937 197.047 74.363 197.029 74.5323L196.788 76.8273C196.77 76.9965 196.686 77.1517 196.554 77.2588C196.421 77.3659 196.252 77.4161 196.083 77.3983L190.521 76.8137L190.083 80.9831L196.457 81.653C196.626 81.6708 196.781 81.7551 196.888 81.8873C196.995 82.0196 197.046 82.1889 197.028 82.3582L196.772 84.7873C196.764 84.8714 196.739 84.9531 196.699 85.0276C196.659 85.1021 196.605 85.1679 196.539 85.2213C196.474 85.2747 196.398 85.3146 196.317 85.3388C196.236 85.3629 196.151 85.3708 196.067 85.3619L185.701 84.2725C185.617 84.2636 185.536 84.2383 185.462 84.1978C185.387 84.1574 185.322 84.1026 185.269 84.0367C185.216 83.9709 185.176 83.8952 185.153 83.814C185.129 83.7328 185.121 83.6477 185.131 83.5637L186.993 65.8421C187.011 65.6728 187.096 65.5176 187.228 65.4105C187.36 65.3034 187.529 65.2533 187.699 65.271L198.064 66.3605C198.233 66.3783 198.389 66.4626 198.496 66.5948C198.603 66.7271 198.653 66.8964 198.635 67.0657L198.379 69.4984C198.362 69.6676 198.277 69.8229 198.145 69.9299C198.013 70.037 197.843 70.0872 197.674 70.0694L191.3 69.3995Z" fill="#101739"/>
<path d="M202.901 85.5892C201.895 85.0705 201.054 84.2813 200.472 83.3105C200.012 82.5262 199.762 81.6362 199.747 80.727C199.744 80.6352 199.761 80.5438 199.796 80.459C199.831 80.3743 199.885 80.2981 199.952 80.2357C200.019 80.1733 200.099 80.1261 200.187 80.0972C200.274 80.0684 200.366 80.0586 200.457 80.0685L204.166 80.4584C204.309 80.4755 204.442 80.5402 204.544 80.6419C204.645 80.7437 204.71 80.8766 204.727 81.0195C204.78 81.4573 204.964 81.869 205.255 82.2003C205.667 82.631 206.226 82.8901 206.821 82.9258C207.398 83.0189 207.989 82.9115 208.495 82.6215C208.707 82.4857 208.884 82.3016 209.012 82.0844C209.139 81.8672 209.213 81.6229 209.228 81.3716C209.257 81.1559 209.24 80.9365 209.179 80.7276C209.119 80.5186 209.015 80.3246 208.875 80.1579C208.571 79.8004 208.203 79.5021 207.791 79.2778C207.178 78.9483 206.547 78.6532 205.901 78.3937C204.904 77.9834 203.939 77.4985 203.015 76.943C202.265 76.4672 201.639 75.8197 201.19 75.054C200.685 74.1447 200.496 73.0934 200.653 72.0652C200.702 71.2658 200.941 70.4896 201.352 69.8018C201.762 69.114 202.331 68.5346 203.012 68.1123C204.401 67.2441 206.123 66.9181 208.18 67.1343C210.237 67.3505 211.876 68.0298 213.098 69.1724C214.103 70.1337 214.686 71.4535 214.721 72.8436C214.724 72.9355 214.708 73.0272 214.673 73.1122C214.638 73.1973 214.584 73.2737 214.517 73.3362C214.449 73.3988 214.369 73.446 214.282 73.4746C214.194 73.5032 214.102 73.5126 214.01 73.502L210.211 73.1027C210.069 73.085 209.937 73.0206 209.836 72.9197C209.735 72.8188 209.671 72.6872 209.653 72.5456C209.596 72.1628 209.421 71.8074 209.152 71.5288C208.74 71.1168 208.193 70.869 207.612 70.8318C207.124 70.7564 206.626 70.8646 206.213 71.1356C206.02 71.2797 205.861 71.4652 205.748 71.6785C205.636 71.8918 205.572 72.1276 205.563 72.3686C205.525 72.6666 205.572 72.9692 205.698 73.2418C205.825 73.5143 206.025 73.7459 206.277 73.9098C207.09 74.4607 207.957 74.9276 208.865 75.3035C209.852 75.7422 210.809 76.2444 211.731 76.8071C212.471 77.2804 213.093 77.9176 213.548 78.6695C214.05 79.539 214.243 80.5528 214.096 81.546C213.998 82.5896 213.603 83.5834 212.959 84.4103C212.278 85.2637 211.371 85.9078 210.341 86.2685C209.125 86.6959 207.827 86.8319 206.549 86.6654C205.274 86.5489 204.035 86.1832 202.901 85.5892Z" fill="#101739"/>
<path fill-rule="evenodd" clip-rule="evenodd" d="M108.204 54.8009C108.366 53.2624 109.132 51.8511 110.334 50.8776C111.536 49.9041 113.076 49.448 114.614 49.6097L219.483 60.6318C221.022 60.7935 222.433 61.5598 223.406 62.762C224.38 63.9642 224.836 65.5039 224.674 67.0424L221.904 93.3964C221.743 94.9349 220.976 96.3461 219.774 97.3197C218.572 98.2932 217.032 98.7493 215.494 98.5876L146.453 91.3311C138.642 90.5101 130.813 91.6194 124.903 92.9529C121.955 93.6179 119.501 94.3346 117.789 94.8837C116.933 95.1582 116.263 95.3904 115.81 95.553C115.584 95.6342 115.411 95.698 115.297 95.7409C115.24 95.7623 115.198 95.7786 115.17 95.7891L115.141 95.8006L115.134 95.8033L115.133 95.8035C114.659 95.9892 114.123 95.9143 113.718 95.6058C113.313 95.2973 113.098 94.7998 113.151 94.2934L113.823 87.9015L110.625 87.5654C109.087 87.4037 107.675 86.6375 106.702 85.4353C105.728 84.2331 105.272 82.6934 105.434 81.1549L108.204 54.8009ZM112.169 53.1441C112.77 52.6573 113.54 52.4293 114.31 52.5101L219.178 63.5323C219.947 63.6131 220.653 63.9962 221.14 64.5973C221.627 65.1984 221.855 65.9683 221.774 66.7375L219.347 89.8286C219.266 90.5979 218.883 91.3035 218.282 91.7902C217.681 92.277 216.911 92.505 216.142 92.4242L147.1 85.1677C138.854 84.3009 130.68 85.4741 124.604 86.845C121.558 87.5321 119.021 88.2731 117.241 88.8436C117.029 88.9119 116.826 88.9777 116.636 89.0408L117.219 83.4932C117.303 82.6923 116.722 81.9747 115.921 81.8906L111.273 81.402C110.504 81.3212 109.798 80.9381 109.311 80.337C108.825 79.7358 108.596 78.966 108.677 78.1968L111.104 55.1057C111.185 54.3365 111.568 53.6309 112.169 53.1441Z" fill="#101739"/>
<defs>
<linearGradient id="paint0_linear_14_220" x1="49.5069" y1="43.3198" x2="105.145" y2="184.375" gradientUnits="userSpaceOnUse">
<stop stop-color="#55B491"/>
<stop offset="0.662582" stop-color="#9EE629"/>
<stop offset="1" stop-color="#B6F353"/>
</linearGradient>
<linearGradient id="paint1_linear_14_220" x1="25.515" y1="148.54" x2="25.515" y2="168.57" gradientUnits="userSpaceOnUse">
<stop stop-color="#75C04F"/>
<stop offset="1" stop-color="#57922C"/>
</linearGradient>
<linearGradient id="paint2_linear_14_220" x1="29.5435" y1="115.261" x2="103.091" y2="107.203" gradientUnits="userSpaceOnUse">
<stop stop-color="#103D3A"/>
<stop offset="1" stop-color="#103D2D" stop-opacity="0"/>
</linearGradient>
<linearGradient id="paint3_linear_14_220" x1="14.44" y1="46.1499" x2="14.44" y2="168.57" gradientUnits="userSpaceOnUse">
<stop stop-color="#52B295"/>
<stop offset="0.567708" stop-color="#8BCF2A"/>
</linearGradient>
</defs>
</svg>
