<svg enable-background="new 0 0 1190.55 841.89" viewBox="0 0 1190.55 841.89" xmlns="http://www.w3.org/2000/svg"><path d="m244.45 422.22c0 7.44 3.72 11.16 11.16 11.16h131.37c9.13 0 13.73-3.72 13.73-11.16v-127.22c20.03-14.88 38.92-22.33 56.66-22.33 19.45 0 29.21 13.75 29.21 41.22v278.16c0 6.31.55 10.03 1.71 11.16 1.13 1.16 4.58 1.71 10.3 1.71h428.4c8.01 0 12.02-3.71 12.02-11.15v-98.73c0-7.44-4.01-11.16-12.02-11.16h-40.36v-413.83c0-6.29-.42-10.01-1.28-11.16s-4.45-1.73-10.74-1.73h-184.59c-9.17 0-13.75 4.3-13.75 12.89v97.88c0 7.44 4.58 11.16 13.75 11.16h40.35v304.79h-88.42v-173.42c0-96.17-46.07-144.24-138.22-144.24-43.5 0-82.71 15.46-117.61 46.36-6.87-22.33-14.89-33.49-24.05-33.49h-147.66c-8.02 0-12.03 4.01-12.03 12.03v95.29c0 7.44 4.01 11.16 12.03 11.16h29.64z" fill="#cb082e"/><path d="m414.91 545.86c0 25.2-8.9 46.95-26.62 65.25-17.76 18.3-39.78 27.45-66.1 27.45-25.74 0-47.51-9.15-65.26-27.45-17.72-18.3-26.62-40.05-26.62-65.25 0-24.61 8.9-45.94 26.62-63.95 17.76-18.01 39.78-27.05 66.1-27.05 25.78 0 47.51 9.04 65.27 27.05 17.71 18.01 26.61 39.34 26.61 63.95z" fill="#cb082e"/><g fill="#373534"><path d="m363.24 725.86h-9.08v-65.26c0-1.41-.09-2.25-.29-2.51-.19-.26-1-.39-2.41-.39h-41.51c-2.06 0-3.09.97-3.09 2.9v22.01c0 1.67 1.03 2.51 3.09 2.51h9.08v40.74h-19.88v-39c0-21.63-10.36-32.44-31.08-32.44-9.78 0-18.6 3.48-26.45 10.43-1.54-5.02-3.35-7.53-5.4-7.53h-33.22c-1.8 0-2.71.9-2.71 2.71v21.43c0 1.67.9 2.51 2.71 2.51h6.76c.39 2.06.57 3.93.57 5.6v36.3h-5.99c-1.67 0-2.51.84-2.51 2.51v22.2c0 1.67.84 2.51 2.51 2.51h37.46c2.05 0 3.08-.83 3.08-2.51v-67.19c4.51-3.35 8.76-5.02 12.74-5.02 4.38 0 6.57 3.09 6.57 9.27v62.55c0 1.42.12 2.26.39 2.51.25.26 1.03.38 2.32.38h96.33c1.8 0 2.71-.83 2.71-2.51v-22.2c.01-1.67-.89-2.51-2.7-2.51z"/><path d="m412.47 654.43c-14.67 0-26.25 4.83-34.75 14.48-8.49 9.66-12.74 22.08-12.74 37.26 0 15.96 4.12 28.32 12.36 37.07 8.23 8.75 20.27 13.12 36.1 13.12 14.41 0 27.03-3.66 37.84-11 1.67-1.16 2.12-2.38 1.35-3.67l-8.69-16.22c-1.02-1.93-2.57-2.38-4.63-1.35-8.88 4.76-17.18 7.14-24.9 7.14-9.78 0-15.19-6.24-16.22-18.73h53.86c1.55 0 2.54-.12 2.99-.38.45-.25.68-1.03.68-2.31.01-36.94-14.42-55.41-43.25-55.41zm-14.28 37.45c1.02-6.18 2.48-10.42 4.35-12.74 1.86-2.32 4.79-3.48 8.78-3.48 3.86 0 6.72 1.19 8.59 3.57 1.86 2.39 2.99 6.6 3.38 12.65z"/><path d="m558.63 726.45h-5.02c-.39-3.48-.58-5.47-.58-5.99v-59.66c0-1.67-.12-2.61-.39-2.8-.25-.19-1.42-.29-3.48-.29h-27.99c-1.8 0-2.71 1.16-2.71 3.48v66.22c-3.73 3.48-7.66 5.21-11.77 5.21-4.9 0-7.34-3.48-7.34-10.42v-61.59c0-1.55-.16-2.41-.48-2.61-.32-.19-1.51-.29-3.57-.29h-36.88c-1.8 0-2.7.9-2.7 2.71v21.81c0 1.68.89 2.51 2.7 2.51h5.99v32.63c0 8.63.45 14.68 1.35 18.15 1.03 4.12 3.21 7.99 6.57 11.58 5.92 6.18 14.67 9.26 26.25 9.26 9.14 0 17.12-3.15 23.94-9.45.52 1.42 1.09 2.8 1.74 4.15.64 1.35 1.8 2.02 3.48 2.02h30.89c1.67 0 2.51-.83 2.51-2.51v-21.43c0-1.79-.84-2.69-2.51-2.69z"/><path d="m761.74 706.17c-3.99-3.99-12.23-8.3-24.71-12.93-5.79-2.19-9.14-3.48-10.04-3.86-2.45-1.41-3.67-3.28-3.67-5.6 0-4.37 3.41-6.56 10.23-6.56 2.06 0 3.54.19 4.44.58l.97 5.41c.25 1.8 1.16 2.7 2.7 2.7h20.28c1.67 0 2.51-.9 2.51-2.7v-14.67c0-2.19-.45-3.67-1.35-4.44-7.59-6.44-18.02-9.66-31.28-9.66-11.19 0-20.5 2.67-27.89 8.01-3.75 2.71-6.55 5.86-8.4 9.45v-11.47c0-1.8-.9-2.71-2.71-2.71h-27.8c-2.06 0-3.28.9-3.66 2.71l-7.36 36.67c-1.03 7.46-1.8 13.7-2.31 18.73-1.03-10.94-1.68-17.19-1.94-18.73l-6.75-36.3c-.39-2.06-1.48-3.09-3.28-3.09h-25.1c-1.8 0-2.9.97-3.29 2.9l-7.53 36.3c-.9 7.59-1.54 13.9-1.93 18.93-.9-9.78-1.61-16.09-2.12-18.93l-6.17-36.49c-.26-1.42-.58-2.22-.97-2.42-.39-.19-1.35-.29-2.89-.29h-29.35c-1.67 0-2.51.9-2.51 2.71v21.81c0 1.68.84 2.51 2.51 2.51h4.44l18.54 67.19c.52 1.67 1.67 2.51 3.48 2.51h25.29c1.29 0 2.09-.1 2.42-.29.32-.2.61-1 .87-2.42l8.68-40.73c.65-2.83 1.35-8.88 2.12-18.15.78 7.46 1.35 13.45 1.74 17.95l6.37 40.93c.26 1.8 1.42 2.7 3.48 2.7h25.29c1.93 0 3.15-.84 3.66-2.51l21.24-67.19h4.83.02c.09 5.47.78 9.66 2.11 12.55.9 2.19 2.76 4.63 5.6 7.34 3.6 3.48 10.49 7.14 20.65 11 7.72 2.96 11.72 4.51 11.97 4.63 2.96 1.55 4.44 3.48 4.44 5.8 0 3.98-3.22 5.99-9.65 5.99-2.71 0-6.31-.71-10.82-2.12l-.97-4.44c-.39-1.8-1.22-2.7-2.51-2.7h-20.27c-1.8 0-2.71.9-2.71 2.7v15.83c0 2.31.64 3.93 1.93 4.82 9.91 6.83 22.66 10.23 38.23 10.23 11.19 0 20.3-2.54 27.32-7.62 7.01-5.08 10.52-12.26 10.52-21.52.01-9.4-2.31-16.42-6.94-21.05z"/></g><path d="m784.04 712c0 1.67.84 2.51 2.51 2.51h29.54c2.05 0 3.09-.84 3.09-2.51v-28.61c4.5-3.35 8.75-5.02 12.74-5.02 4.38 0 6.57 3.09 6.57 9.27v62.55c0 1.42.12 2.26.38 2.51.25.26 1.03.38 2.32.38h96.34c1.8 0 2.7-.83 2.7-2.51v-22.2c0-1.67-.9-2.51-2.7-2.51h-9.08v-93.06c0-1.41-.09-2.25-.29-2.51-.19-.26-1-.39-2.42-.39h-41.51c-2.06 0-3.09.97-3.09 2.9v22.01c0 1.67 1.03 2.51 3.09 2.51h9.07v68.54h-19.88v-39c0-21.63-10.36-32.44-31.08-32.44-9.78 0-18.6 3.48-26.45 10.43-1.54-5.02-3.35-7.53-5.41-7.53h-33.21c-1.8 0-2.71.9-2.71 2.71v21.43c0 1.67.9 2.51 2.71 2.51h6.67z" fill="#cb082e"/><path d="m822.37 739.8c0 5.67-2 10.56-5.99 14.67-3.99 4.12-8.95 6.17-14.87 6.17-5.79 0-10.68-2.06-14.68-6.17-3.98-4.11-5.99-9.01-5.99-14.67 0-5.54 2-10.33 5.99-14.38s8.95-6.08 14.87-6.08c5.8 0 10.68 2.03 14.68 6.08 3.99 4.05 5.99 8.85 5.99 14.38z" fill="#cb082e"/></svg>