<svg width="24" height="24" viewBox="0 0 24 24" fill="none" xmlns="http://www.w3.org/2000/svg">
<path fill-rule="evenodd" clip-rule="evenodd" d="M20.1766 5.92749C20.7861 5.92749 21.1858 6.1418 21.5855 6.61123C21.9852 7.08067 22.0551 7.7542 21.9652 8.36549L21.0159 15.06C20.8361 16.3469 19.7569 17.2949 18.4879 17.2949H7.58639C6.25742 17.2949 5.15828 16.255 5.04837 14.908L4.12908 3.7834L2.62026 3.51807C2.22057 3.44664 1.94079 3.04864 2.01073 2.64043C2.08068 2.22305 2.47038 1.94649 2.88006 2.00874L5.2632 2.3751C5.60293 2.43735 5.85274 2.72207 5.88272 3.06905L6.07257 5.35499C6.10254 5.68257 6.36234 5.92749 6.68209 5.92749H20.1766ZM5.9075 20.459C5.9075 19.6018 6.58697 18.9079 7.42631 18.9079C8.25567 18.9079 8.93514 19.6018 8.93514 20.459C8.93514 21.3061 8.25567 22 7.42631 22C6.58697 22 5.9075 21.3061 5.9075 20.459ZM17.1487 20.459C17.1487 19.6018 17.8282 18.9079 18.6676 18.9079C19.4969 18.9079 20.1764 19.6018 20.1764 20.459C20.1764 21.3061 19.4969 22 18.6676 22C17.8282 22 17.1487 21.3061 17.1487 20.459Z" fill="black"/>
</svg>
