<svg width="71" height="85" viewBox="0 0 71 85" fill="none" xmlns="http://www.w3.org/2000/svg">
<path d="M16.1478 22.212L7.52596 13.4551C-2.63686 26.3069 -2.507 44.7816 7.91543 57.4898L16.513 48.7575C10.7264 40.9341 10.6047 30.1595 16.1478 22.212Z" fill="#FC818C"/>
<path d="M12.2314 8.20864C25.1369 -2.73621 43.9722 -2.73621 56.8777 8.20864L48.1204 17.1246C40.106 10.9947 29.0032 10.9947 20.9888 17.1246L12.2314 8.20864Z" fill="#515BE2"/>
<path d="M53.208 49.369L62.124 58.1013C72.9325 45.3932 73.0671 26.9185 62.5279 14.0667L53.5867 22.8236C59.3352 30.7711 59.2089 41.5456 53.208 49.369Z" fill="#8B62CF"/>
<path d="M21.8587 54.6193L13.4561 63.0141L34.8618 84.3999L56.2675 63.0141L47.6772 54.4318L34.6742 67.4228L21.8587 54.6193Z" fill="#E94485"/>
<circle cx="47.0925" cy="36.0839" r="6.11593" fill="#8A61CF"/>
<circle cx="34.861" cy="48.3159" r="6.11593" fill="#E94485"/>
<circle cx="34.861" cy="23.2406" r="6.11593" fill="#515BE2"/>
<circle cx="22.6296" cy="35.4723" r="6.11593" fill="#FC818C"/>
</svg>
